<?xml version="1.0" encoding="utf-8"?>
<!-- Generator: Adobe Illustrator 21.0.0, SVG Export Plug-In . SVG Version: 6.00 Build 0)  -->
<svg version="1.1" id="Capa_1" xmlns="http://www.w3.org/2000/svg" xmlns:xlink="http://www.w3.org/1999/xlink" x="0px" y="0px"
	 viewBox="0 0 358 349" style="enable-background:new 0 0 358 349;" xml:space="preserve">
<style type="text/css">
	.st0{fill:#000000;}
</style>
<g id="XMLID_2882_">
	<g id="XMLID_2893_">
		<circle style="fill:#FFFFFF;" id="XMLID_2899_" cx="94.2" cy="190.9" r="3.6"/>
		<path style="fill:#FFFFFF;" id="XMLID_2898_" d="M285.4,151.8c0-10.9-8.9-20.2-19.7-20.2h-64.5c-0.3,0-0.6,0.5-0.9,0.6c-17.2-29.3-37-46.9-58.6-52.6
			c-1.2-0.3-2.4-0.5-3.6-0.7c-0.1-0.2-0.2-0.4-0.4-0.7l-15.8-22.5c-1.6-2.3-4.4-3.2-7-2.4c-2.6,0.8-4.4,3.3-4.4,6.1v20.4
			c-8.4,2-14.9,5.1-20.3,8.3c-10.7,6.3-17.7,17.9-17.7,30.2v78.3c0,10.2,9.1,19.3,19.3,19.3h18.8c10.2,0,18.8-9.1,18.8-19.3v-25.4
			c10.5-14,12.9-29.5,12.9-30.1c0-3.5-2.8-6.3-6.3-6.4c-3.5-0.1-6.4,2.7-6.5,6.2c0,0.5-1.4,12.6-12.1,23.3c-1.2,1.2-2.8,2.8-2.8,4.5
			v27.9c0,3.3-0.8,2.5-4,2.5H91.8c-3.3,0-6.7,0.8-6.7-2.5v-78.3c0-7.9,4.7-15.3,11.5-19.3c3.7-2.2,5.4-4.4,13.8-6v2.2
			c0,3.5,2.8,6.3,6.3,6.3c3.5,0,6.3-2.8,6.3-6.3v-4.6c6.3-0.3,10,0.1,15.4,1.5c18.9,5,36.5,21.7,52.4,49.6c1.5,2.6,4.6,2.2,7.4,1.3
			c0.9,0.5,1.8-0.8,2.9-0.8h64.5c3.9,0,7.1,4.7,7.1,8.6l0.2,97.7c0,2.9-1.7,5.8-4.3,6.9l-64.9,27.2c-1.6,0.7-3.4,0.8-5.1,0.2
			l-60.3-21.7c-2.8-1-4.6-3.6-4.6-6.6v-25c0-3.5-1.8-6.3-5.3-6.3c-3.5,0-5.3,2.8-5.3,6.3v25c0,8.3,4.2,15.7,12,18.6l59.8,21.7
			c2.2,0.8,4.2,1.2,6.4,1.2c2.6,0,5-0.5,7.4-1.5l64.8-27c7.4-3.1,12.1-10.5,12.1-18.5L285.4,151.8z"/>
		<path style="fill:#FFFFFF;" id="XMLID_2895_" d="M197.8,276.3c0.2,0.1,0.4,0.1,0.7,0.2l0,0c1.1,0.4,2.3,0.2,3.4,0.2c1.4,0,2.7,0.3,4-1h0l27.8-10.6
			c0.2-0.1,0.4-0.1,0.6-0.2l19.9-7.6c6-2.3,10.1-7.9,10.1-14.3v-76.2c0-8.5-7.5-16.3-16-16.3h-49H175c-0.3,0-0.5,0-0.7,0h-18.9
			c-8.5,0-17.5,7.9-17.5,16.5v76.2c0,6.4,4.9,12,10.9,14.4L197.8,276.3z M257.9,166.9v76.2c0,4.1-2.4,7.6-6.2,9.1l-20.2,7.9
			c-0.2,0.1-0.4,0.2-0.6,0.3l-27.8,10.7c-0.5,0.2-0.1,0.3-2.2,0.3V156.9h47.2C253.7,156.9,257.9,161.5,257.9,166.9z"/>
		<path style="fill:#FFFFFF;" id="XMLID_2894_" d="M102.6,146.2l4.6-8.8c1.6-3.1,0.4-6.9-2.7-8.6c-3.1-1.6-6.9-0.4-8.6,2.7l-4.6,8.8
			c-1.6,3.1-0.4,6.9,2.7,8.6c0.9,0.5,1.9,0.7,2.9,0.7C99.2,149.6,101.4,148.4,102.6,146.2z"/>
	</g>
	<g id="XMLID_2891_">
		<polygon id="XMLID_2892_" class="st0" points="164.8,197.8 177.1,197.8 177.1,202.2 169.5,202.2 169.5,207.7 176.8,207.7 
			176.8,212.2 169.5,212.2 169.5,222.4 164.8,222.4 		"/>
	</g>
	<g id="XMLID_2887_">
		<path id="XMLID_2888_" class="st0" d="M184.9,197.8c1.9,0,3.7,0.1,5.3,0.4c1.6,0.2,3.2,0.7,4.8,1.5c1.5,0.8,2.8,1.9,3.8,3.5
			c1,1.5,1.6,3.5,1.8,5.9c0,0.2,0,0.5,0,0.8c0,1.4-0.2,2.8-0.6,4.2c-0.4,1.4-1.1,2.7-2,4c-1,1.3-2.4,2.3-4.2,3.1
			c-1.8,0.8-4,1.2-6.6,1.2h-6.5v-24.6H184.9z M185.4,202.2v15.4c0.8,0.2,1.7,0.2,2.5,0.2c2.3,0,4.2-0.6,5.7-1.9
			c1.5-1.3,2.2-3.2,2.2-5.6c0-3-0.8-5.1-2.4-6.3C191.8,202.8,189.1,202.2,185.4,202.2"/>
	</g>
	<g id="XMLID_2885_">
		<polygon style="fill:#FFFFFF;" id="XMLID_2886_" points="204,197.8 208.9,197.8 219.4,215.8 219.4,197.8 223.9,197.8 223.9,222.4 218.9,222.4 
			208.7,204.6 208.7,222.4 204,222.4 		"/>
	</g>
	<g id="XMLID_2883_">
		<polygon style="fill:#FFFFFF;" id="XMLID_2884_" points="228.6,197.8 241.6,197.8 241.6,202.2 233,202.2 233,208.2 241.4,208.2 241.4,212.4 233,212.4 
			233,218.2 241.6,218.2 241.6,222.4 228.6,222.4 		"/>
	</g>
</g>
</svg>
