<svg xmlns="http://www.w3.org/2000/svg" xmlns:xlink="http://www.w3.org/1999/xlink" version="1.1" style="" xml:space="preserve" width="213" height="243"><rect id="backgroundrect" width="100%" height="100%" x="0" y="0" fill="none" stroke="none"/>
<style type="text/css">
	.st0{fill:#000000;}
</style>

<g class="currentLayer" style=""><title>Layer 1</title><g id="XMLID_2882_" class="">
	<g id="XMLID_2893_">
		<circle style="fill:#FFFFFF;" id="XMLID_2899_" cx="21.70001220703125" cy="137.8863639831543" r="3.5999999046325684"/>
		<path style="fill:#FFFFFF;" id="XMLID_2898_" d="M212.90001525878904,98.78637008666993 c0,-10.9 -8.9,-20.2 -19.7,-20.2 h-64.5 c-0.30000000000000004,0 -0.6000000000000001,0.5 -0.9,0.6000000000000001 c-17.2,-29.3 -37,-46.9 -58.6,-52.6 c-1.2,-0.30000000000000004 -2.4,-0.5 -3.6,-0.7000000000000001 c-0.1,-0.2 -0.2,-0.4 -0.4,-0.7000000000000001 l-15.8,-22.5 c-1.6,-2.3 -4.4,-3.2 -7,-2.4 c-2.6,0.8 -4.4,3.3 -4.4,6.1 v20.4 c-8.4,2 -14.9,5.1 -20.3,8.3 c-10.7,6.3 -17.7,17.9 -17.7,30.2 v78.3 c0,10.2 9.1,19.3 19.3,19.3 h18.8 c10.2,0 18.8,-9.1 18.8,-19.3 v-25.4 c10.5,-14 12.9,-29.5 12.9,-30.1 c0,-3.5 -2.8,-6.3 -6.3,-6.4 c-3.5,-0.1 -6.4,2.7 -6.5,6.2 c0,0.5 -1.4,12.6 -12.1,23.3 c-1.2,1.2 -2.8,2.8 -2.8,4.5 v27.9 c0,3.3 -0.8,2.5 -4,2.5 H19.30001525878906 c-3.3,0 -6.7,0.8 -6.7,-2.5 v-78.3 c0,-7.9 4.7,-15.3 11.5,-19.3 c3.7,-2.2 5.4,-4.4 13.8,-6 v2.2 c0,3.5 2.8,6.3 6.3,6.3 c3.5,0 6.3,-2.8 6.3,-6.3 v-4.6 c6.3,-0.30000000000000004 10,0.1 15.4,1.5 c18.9,5 36.5,21.7 52.4,49.6 c1.5,2.6 4.6,2.2 7.4,1.3 c0.9,0.5 1.8,-0.8 2.9,-0.8 h64.5 c3.9,0 7.1,4.7 7.1,8.6 l0.2,97.7 c0,2.9 -1.7000000000000002,5.8 -4.3,6.9 l-64.9,27.2 c-1.6,0.7000000000000001 -3.4,0.8 -5.1,0.2 l-60.3,-21.7 c-2.8,-1 -4.6,-3.6 -4.6,-6.6 v-25 c0,-3.5 -1.8,-6.3 -5.3,-6.3 c-3.5,0 -5.3,2.8 -5.3,6.3 v25 c0,8.3 4.2,15.7 12,18.6 l59.8,21.7 c2.2,0.8 4.2,1.2 6.4,1.2 c2.6,0 5,-0.5 7.4,-1.5 l64.8,-27 c7.4,-3.1 12.1,-10.5 12.1,-18.5 L212.90001525878904,98.78637008666993 z"/>
		<path style="fill:#FFFFFF;" id="XMLID_2895_" d="M125.30001525878907,223.28637008666993 c0.2,0.1 0.4,0.1 0.7000000000000001,0.2 l0,0 c1.1,0.4 2.3,0.2 3.4,0.2 c1.4,0 2.7,0.30000000000000004 4,-1 h0 l27.8,-10.6 c0.2,-0.1 0.4,-0.1 0.6000000000000001,-0.2 l19.9,-7.6 c6,-2.3 10.1,-7.9 10.1,-14.3 v-76.2 c0,-8.5 -7.5,-16.3 -16,-16.3 h-49 H102.50001525878906 c-0.30000000000000004,0 -0.5,0 -0.7000000000000001,0 h-18.9 c-8.5,0 -17.5,7.9 -17.5,16.5 v76.2 c0,6.4 4.9,12 10.9,14.4 L125.30001525878907,223.28637008666993 zM185.40001525878904,113.88637008666993 v76.2 c0,4.1 -2.4,7.6 -6.2,9.1 l-20.2,7.9 c-0.2,0.1 -0.4,0.2 -0.6000000000000001,0.30000000000000004 l-27.8,10.7 c-0.5,0.2 -0.1,0.30000000000000004 -2.2,0.30000000000000004 V103.88637008666993 h47.2 C181.20001525878905,103.88637008666993 185.40001525878904,108.48637008666992 185.40001525878904,113.88637008666993 z"/>
		<path style="fill:#FFFFFF;" id="XMLID_2894_" d="M30.100015258789057,93.18637008666991 l4.6,-8.8 c1.6,-3.1 0.4,-6.9 -2.7,-8.6 c-3.1,-1.6 -6.9,-0.4 -8.6,2.7 l-4.6,8.8 c-1.6,3.1 -0.4,6.9 2.7,8.6 c0.9,0.5 1.9,0.7000000000000001 2.9,0.7000000000000001 C26.700015258789065,96.58637008666992 28.900015258789068,95.38637008666993 30.100015258789057,93.18637008666991 z"/>
	</g>
	<g id="XMLID_2891_">
		<polygon id="XMLID_2892_" class="st0" points="92.30001831054688,144.78637313842773 104.60002136230469,144.78637313842773 104.60002136230469,149.1863670349121 97.00001525878906,149.1863670349121 97.00001525878906,154.6863670349121 104.30001831054688,154.6863670349121 104.30001831054688,159.1863670349121 97.00001525878906,159.1863670349121 97.00001525878906,169.3863639831543 92.30001831054688,169.3863639831543 "/>
	</g>
	<g id="XMLID_2887_">
		<path id="XMLID_2888_" class="st0" d="M112.40001525878907,144.78637008666993 c1.9,0 3.7,0.1 5.3,0.4 c1.6,0.2 3.2,0.7000000000000001 4.8,1.5 c1.5,0.8 2.8,1.9 3.8,3.5 c1,1.5 1.6,3.5 1.8,5.9 c0,0.2 0,0.5 0,0.8 c0,1.4 -0.2,2.8 -0.6000000000000001,4.2 c-0.4,1.4 -1.1,2.7 -2,4 c-1,1.3 -2.4,2.3 -4.2,3.1 c-1.8,0.8 -4,1.2 -6.6,1.2 h-6.5 v-24.6 H112.40001525878907 zM112.90001525878907,149.1863700866699 v15.4 c0.8,0.2 1.7000000000000002,0.2 2.5,0.2 c2.3,0 4.2,-0.6000000000000001 5.7,-1.9 c1.5,-1.3 2.2,-3.2 2.2,-5.6 c0,-3 -0.8,-5.1 -2.4,-6.3 C119.30001525878907,149.78637008666993 116.60001525878906,149.1863700866699 112.90001525878907,149.1863700866699 "/>
	</g>
	<g id="XMLID_2885_">
		<polygon style="fill:#FFFFFF;" id="XMLID_2886_" points="131.50001525878906,144.78637313842773 136.40000915527344,144.78637313842773 146.90000915527344,162.78637313842773 146.90000915527344,144.78637313842773 151.40000915527344,144.78637313842773 151.40000915527344,169.3863639831543 146.40000915527344,169.3863639831543 136.20001220703125,151.58637619018555 136.20001220703125,169.3863639831543 131.50001525878906,169.3863639831543 "/>
	</g>
	<g id="XMLID_2883_">
		<polygon style="fill:#FFFFFF;" id="XMLID_2884_" points="156.1000213623047,144.78637313842773 169.1000213623047,144.78637313842773 169.1000213623047,149.1863670349121 160.50001525878906,149.1863670349121 160.50001525878906,155.1863670349121 168.90000915527344,155.1863670349121 168.90000915527344,159.3863639831543 160.50001525878906,159.3863639831543 160.50001525878906,165.1863670349121 169.1000213623047,165.1863670349121 169.1000213623047,169.3863639831543 156.1000213623047,169.3863639831543 "/>
	</g>
</g></g></svg>