<svg xmlns="http://www.w3.org/2000/svg" xmlns:xlink="http://www.w3.org/1999/xlink" version="1.1" style="enable-background:new 0 0 255 169.5;" xml:space="preserve" width="205" height="65"><rect id="backgroundrect" width="100%" height="100%" x="0" y="0" fill="none" stroke="none"/>
<style type="text/css">
	.st0{fill:none;stroke:#E1311E;stroke-width:3.2963;stroke-linecap:round;stroke-miterlimit:10;}
	.st1{fill:none;stroke:#E1311E;stroke-width:2.3545;stroke-linecap:round;stroke-miterlimit:10;}
</style>

<g class="currentLayer" style=""><title>Layer 1</title><g id="XMLID_1_" class="">
	<line id="XMLID_21_" class="st0" x1="16.200000762939453" y1="46.69999694824219" x2="0" y2="65.10000610351562"/>
	<line id="XMLID_20_" class="st0" x1="57.60000228881836" y1="0" x2="22.200000762939453" y2="40"/>
	<line id="XMLID_19_" class="st0" x1="46.20000076293945" y1="31" x2="16.400001525878906" y2="65.10000610351562"/>
	<line id="XMLID_18_" class="st0" x1="74.00000381469727" y1="0" x2="52.20000076293945" y2="24.300003051757812"/>
	<line id="XMLID_17_" class="st0" x1="50.10000228881836" y1="45.19999694824219" x2="32.79999923706055" y2="65.10000610351562"/>
	<line id="XMLID_16_" class="st0" x1="90.29999923706055" y1="0" x2="56.10000228881836" y2="38.400001525878906"/>
	<line id="XMLID_15_" class="st0" x1="76.20000076293945" y1="34.599998474121094" x2="49.20000076293945" y2="65.10000610351562"/>
	<line id="XMLID_14_" class="st0" x1="106.70000076293945" y1="0" x2="82.10000228881836" y2="27.800003051757812"/>
	<line id="XMLID_13_" class="st0" x1="105.00000381469727" y1="20.900001525878906" x2="65.60000228881836" y2="65.10000610351562"/>
	<line id="XMLID_12_" class="st0" x1="123.09999465942383" y1="0" x2="111.00000381469727" y2="14.099998474121094"/>
	<line id="XMLID_11_" class="st0" x1="90.29999923706055" y1="55.80000305175781" x2="82.00000381469727" y2="65.10000610351562"/>
	<line id="XMLID_10_" class="st0" x1="139.50000381469727" y1="0" x2="96.29999923706055" y2="49"/>
	<line id="XMLID_9_" class="st0" x1="126.50000381469727" y1="32.599998474121094" x2="98.39999771118164" y2="65.10000610351562"/>
	<line id="XMLID_8_" class="st0" x1="155.89999771118164" y1="0" x2="132.50000381469727" y2="25.800003051757812"/>
	<line id="XMLID_7_" class="st0" x1="144.59999465942383" y1="31" x2="114.70000076293945" y2="65.10000610351562"/>
	<line id="XMLID_6_" class="st0" x1="172.30000686645508" y1="0" x2="150.50000381469727" y2="24.300003051757812"/>
	<line id="XMLID_5_" class="st0" x1="177.30000686645508" y1="13" x2="131.09999465942383" y2="65.10000610351562"/>
	<line id="XMLID_4_" class="st1" x1="188.70000076293945" y1="0" x2="183.30000686645508" y2="6.1999969482421875"/>
	<line id="XMLID_3_" class="st0" x1="177.30000686645508" y1="31" x2="147.50000381469727" y2="65.10000610351562"/>
	<line id="XMLID_2_" class="st0" x1="205.09999465942383" y1="0" x2="183.30000686645508" y2="24.300003051757812"/>
</g></g></svg>