<?xml version="1.0" encoding="utf-8"?>
<!-- Generator: Adobe Illustrator 21.0.0, SVG Export Plug-In . SVG Version: 6.00 Build 0)  -->
<svg version="1.1" id="Capa_1" xmlns="http://www.w3.org/2000/svg" xmlns:xlink="http://www.w3.org/1999/xlink" x="0px" y="0px"
	 viewBox="0 0 233 107" style="enable-background:new 0 0 233 107;" xml:space="preserve">
<style type="text/css">
	.st0{fill:none;stroke:#FFFFFF;stroke-width:5.8306;stroke-linecap:round;stroke-miterlimit:10;}
	.st1{fill:none;stroke:#FFFFFF;stroke-width:4.1647;stroke-linecap:round;stroke-miterlimit:10;}
</style>
<g id="XMLID_523_">
	<line id="XMLID_546_" class="st0" x1="39.9" y1="66.1" x2="25.5" y2="82.4"/>
	<line id="XMLID_545_" class="st0" x1="76.6" y1="24.6" x2="45.2" y2="60.1"/>
	<line id="XMLID_543_" class="st0" x1="66.5" y1="52.2" x2="40" y2="82.4"/>
	<line id="XMLID_542_" class="st0" x1="91.1" y1="24.6" x2="71.8" y2="46.2"/>
	<line id="XMLID_541_" class="st0" x1="70" y1="64.7" x2="54.6" y2="82.4"/>
	<line id="XMLID_540_" class="st0" x1="105.7" y1="24.6" x2="75.3" y2="58.7"/>
	<line id="XMLID_539_" class="st0" x1="93.1" y1="55.3" x2="69.1" y2="82.4"/>
	<line id="XMLID_538_" class="st0" x1="120.2" y1="24.6" x2="98.4" y2="49.3"/>
	<line id="XMLID_537_" class="st0" x1="118.7" y1="43.1" x2="83.7" y2="82.4"/>
	<line id="XMLID_536_" class="st0" x1="134.8" y1="24.6" x2="124" y2="37.1"/>
	<line id="XMLID_535_" class="st0" x1="105.6" y1="74.1" x2="98.2" y2="82.4"/>
	<line id="XMLID_534_" class="st0" x1="149.3" y1="24.6" x2="110.9" y2="68.1"/>
	<line id="XMLID_533_" class="st0" x1="137.7" y1="53.6" x2="112.8" y2="82.4"/>
	<line id="XMLID_532_" class="st0" x1="163.9" y1="24.6" x2="143" y2="47.6"/>
	<line id="XMLID_531_" class="st0" x1="153.8" y1="52.2" x2="127.3" y2="82.4"/>
	<line id="XMLID_530_" class="st0" x1="178.4" y1="24.6" x2="159.1" y2="46.2"/>
	<line id="XMLID_529_" class="st0" x1="182.9" y1="36.2" x2="141.9" y2="82.4"/>
	<line id="XMLID_528_" class="st1" x1="193" y1="24.6" x2="188.2" y2="30.2"/>
	<line id="XMLID_527_" class="st0" x1="182.9" y1="52.2" x2="156.4" y2="82.4"/>
	<line id="XMLID_526_" class="st0" x1="207.5" y1="24.6" x2="188.2" y2="46.2"/>
</g>
</svg>
