<?xml version="1.0" encoding="utf-8"?>
<!-- Generator: Adobe Illustrator 21.0.0, SVG Export Plug-In . SVG Version: 6.00 Build 0)  -->
<svg version="1.1" id="Capa_1" xmlns="http://www.w3.org/2000/svg" xmlns:xlink="http://www.w3.org/1999/xlink" x="0px" y="0px"
	 viewBox="0 0 255 169.5" style="enable-background:new 0 0 255 169.5;" xml:space="preserve">
<style type="text/css">
	.st0{opacity:0.15;}
	.st1{fill:none;stroke:#020203;stroke-width:3.2963;stroke-linecap:round;stroke-miterlimit:10;}
	.st2{fill:none;stroke:#020203;stroke-width:2.3545;stroke-linecap:round;stroke-miterlimit:10;}
</style>
<g id="XMLID_1_" class="st0">
	<line id="XMLID_21_" class="st1" x1="38" y1="109.7" x2="21.8" y2="128.1"/>
	<line id="XMLID_20_" class="st1" x1="79.4" y1="63" x2="44" y2="103"/>
	<line id="XMLID_19_" class="st1" x1="68" y1="94" x2="38.2" y2="128.1"/>
	<line id="XMLID_18_" class="st1" x1="95.8" y1="63" x2="74" y2="87.3"/>
	<line id="XMLID_17_" class="st1" x1="71.9" y1="108.2" x2="54.6" y2="128.1"/>
	<line id="XMLID_16_" class="st1" x1="112.1" y1="63" x2="77.9" y2="101.4"/>
	<line id="XMLID_15_" class="st1" x1="98" y1="97.6" x2="71" y2="128.1"/>
	<line id="XMLID_14_" class="st1" x1="128.5" y1="63" x2="103.9" y2="90.8"/>
	<line id="XMLID_13_" class="st1" x1="126.8" y1="83.9" x2="87.4" y2="128.1"/>
	<line id="XMLID_12_" class="st1" x1="144.9" y1="63" x2="132.8" y2="77.1"/>
	<line id="XMLID_11_" class="st1" x1="112.1" y1="118.8" x2="103.8" y2="128.1"/>
	<line id="XMLID_10_" class="st1" x1="161.3" y1="63" x2="118.1" y2="112"/>
	<line id="XMLID_9_" class="st1" x1="148.3" y1="95.6" x2="120.2" y2="128.1"/>
	<line id="XMLID_8_" class="st1" x1="177.7" y1="63" x2="154.3" y2="88.8"/>
	<line id="XMLID_7_" class="st1" x1="166.4" y1="94" x2="136.5" y2="128.1"/>
	<line id="XMLID_6_" class="st1" x1="194.1" y1="63" x2="172.3" y2="87.3"/>
	<line id="XMLID_5_" class="st1" x1="199.1" y1="76" x2="152.9" y2="128.1"/>
	<line id="XMLID_4_" class="st2" x1="210.5" y1="63" x2="205.1" y2="69.2"/>
	<line id="XMLID_3_" class="st1" x1="199.1" y1="94" x2="169.3" y2="128.1"/>
	<line id="XMLID_2_" class="st1" x1="226.9" y1="63" x2="205.1" y2="87.3"/>
</g>
</svg>
