<svg xmlns="http://www.w3.org/2000/svg" xmlns:xlink="http://www.w3.org/1999/xlink" version="1.1" style="enable-background:new 0 0 233 107;" xml:space="preserve" width="182" height="58"><rect id="backgroundrect" width="100%" height="100%" x="0" y="0" fill="none" stroke="none"/>
<style type="text/css">
	.st0{fill:none;stroke:#333333;stroke-width:5.8306;stroke-linecap:round;stroke-miterlimit:10;}
	.st1{fill:none;stroke:#333333;stroke-width:4.1647;stroke-linecap:round;stroke-miterlimit:10;}
</style>

<g class="currentLayer" style=""><title>Layer 1</title><g id="XMLID_523_" class="">
	<line id="XMLID_546_" class="st0" x1="14.400001525878906" y1="41.49999809265137" x2="0" y2="57.80000114440918"/>
	<line id="XMLID_545_" class="st0" x1="51.099998474121094" y1="0" x2="19.700000762939453" y2="35.49999809265137"/>
	<line id="XMLID_543_" class="st0" x1="41" y1="27.600000381469727" x2="14.5" y2="57.80000114440918"/>
	<line id="XMLID_542_" class="st0" x1="65.5999984741211" y1="0" x2="46.30000305175781" y2="21.600000381469727"/>
	<line id="XMLID_541_" class="st0" x1="44.5" y1="40.09999656677246" x2="29.099998474121094" y2="57.80000114440918"/>
	<line id="XMLID_540_" class="st0" x1="80.19999694824219" y1="0" x2="49.80000305175781" y2="34.10000038146973"/>
	<line id="XMLID_539_" class="st0" x1="67.5999984741211" y1="30.69999885559082" x2="43.599998474121094" y2="57.80000114440918"/>
	<line id="XMLID_538_" class="st0" x1="94.69999694824219" y1="0" x2="72.9000015258789" y2="24.69999885559082"/>
	<line id="XMLID_537_" class="st0" x1="93.19999694824219" y1="18.499998092651367" x2="58.19999694824219" y2="57.80000114440918"/>
	<line id="XMLID_536_" class="st0" x1="109.30000305175781" y1="0" x2="98.5" y2="12.499998092651367"/>
	<line id="XMLID_535_" class="st0" x1="80.0999984741211" y1="49.49999809265137" x2="72.69999694824219" y2="57.80000114440918"/>
	<line id="XMLID_534_" class="st0" x1="123.80000305175781" y1="0" x2="85.4000015258789" y2="43.49999809265137"/>
	<line id="XMLID_533_" class="st0" x1="112.19999694824219" y1="28.999998092651367" x2="87.30000305175781" y2="57.80000114440918"/>
	<line id="XMLID_532_" class="st0" x1="138.39999389648438" y1="0" x2="117.5" y2="22.999998092651367"/>
	<line id="XMLID_531_" class="st0" x1="128.3000030517578" y1="27.600000381469727" x2="101.80000305175781" y2="57.80000114440918"/>
	<line id="XMLID_530_" class="st0" x1="152.89999389648438" y1="0" x2="133.60000610351562" y2="21.600000381469727"/>
	<line id="XMLID_529_" class="st0" x1="157.39999389648438" y1="11.600000381469727" x2="116.39999389648438" y2="57.80000114440918"/>
	<line id="XMLID_528_" class="st1" x1="167.5" y1="0" x2="162.6999969482422" y2="5.600000381469727"/>
	<line id="XMLID_527_" class="st0" x1="157.39999389648438" y1="27.600000381469727" x2="130.89999389648438" y2="57.80000114440918"/>
	<line id="XMLID_526_" class="st0" x1="182" y1="0" x2="162.6999969482422" y2="21.600000381469727"/>
</g></g></svg>